<svg width="234" height="48" viewBox="0 0 234 48" fill="none" xmlns="http://www.w3.org/2000/svg">
<rect width="234" height="48" rx="8" fill="url(#paint0_linear_1_64)" fill-opacity="0.36"/>
<path d="M86.3625 31H83.9465V26.072H79.4185V31H77.0025V19.576H79.4185V24.056H83.9465V19.576H86.3625V31ZM94.6289 22.088C95.8022 22.088 96.6982 22.344 97.3169 22.856C97.9462 23.3573 98.2609 24.1307 98.2609 25.176V31H96.5969L96.1329 29.816H96.0689C95.8235 30.1253 95.5675 30.3813 95.3009 30.584C95.0449 30.7867 94.7462 30.9307 94.4049 31.016C94.0742 31.112 93.6635 31.16 93.1729 31.16C92.6609 31.16 92.1969 31.064 91.7809 30.872C91.3755 30.6693 91.0555 30.3653 90.8209 29.96C90.5862 29.544 90.4689 29.0213 90.4689 28.392C90.4689 27.464 90.7942 26.7813 91.4449 26.344C92.0955 25.896 93.0715 25.6507 94.3729 25.608L95.8929 25.56V25.176C95.8929 24.7173 95.7702 24.3813 95.5249 24.168C95.2902 23.9547 94.9595 23.848 94.5329 23.848C94.1062 23.848 93.6902 23.912 93.2849 24.04C92.8795 24.1573 92.4742 24.3067 92.0689 24.488L91.2849 22.872C91.7542 22.6267 92.2715 22.4347 92.8369 22.296C93.4129 22.1573 94.0102 22.088 94.6289 22.088ZM94.9649 26.984C94.1969 27.0053 93.6635 27.144 93.3649 27.4C93.0662 27.656 92.9169 27.992 92.9169 28.408C92.9169 28.7707 93.0235 29.032 93.2369 29.192C93.4502 29.3413 93.7275 29.416 94.0689 29.416C94.5809 29.416 95.0129 29.2667 95.3649 28.968C95.7169 28.6587 95.8929 28.2267 95.8929 27.672V26.952L94.9649 26.984ZM115.709 22.264V31H102.701V22.264H105.085V29.208H108.013V22.264H110.397V29.208H113.325V22.264H115.709ZM123.785 22.088C124.958 22.088 125.854 22.344 126.473 22.856C127.102 23.3573 127.417 24.1307 127.417 25.176V31H125.753L125.289 29.816H125.225C124.98 30.1253 124.724 30.3813 124.457 30.584C124.201 30.7867 123.902 30.9307 123.561 31.016C123.23 31.112 122.82 31.16 122.329 31.16C121.817 31.16 121.353 31.064 120.937 30.872C120.532 30.6693 120.212 30.3653 119.977 29.96C119.742 29.544 119.625 29.0213 119.625 28.392C119.625 27.464 119.95 26.7813 120.601 26.344C121.252 25.896 122.228 25.6507 123.529 25.608L125.049 25.56V25.176C125.049 24.7173 124.926 24.3813 124.681 24.168C124.446 23.9547 124.116 23.848 123.689 23.848C123.262 23.848 122.846 23.912 122.441 24.04C122.036 24.1573 121.63 24.3067 121.225 24.488L120.441 22.872C120.91 22.6267 121.428 22.4347 121.993 22.296C122.569 22.1573 123.166 22.088 123.785 22.088ZM124.121 26.984C123.353 27.0053 122.82 27.144 122.521 27.4C122.222 27.656 122.073 27.992 122.073 28.408C122.073 28.7707 122.18 29.032 122.393 29.192C122.606 29.3413 122.884 29.416 123.225 29.416C123.737 29.416 124.169 29.2667 124.521 28.968C124.873 28.6587 125.049 28.2267 125.049 27.672V26.952L124.121 26.984ZM142.382 22.264H145.006L141.55 26.456L145.31 31H142.606L139.038 26.568V31H136.654V22.264H139.038V26.504L142.382 22.264ZM152.145 22.088C153.318 22.088 154.214 22.344 154.833 22.856C155.462 23.3573 155.777 24.1307 155.777 25.176V31H154.113L153.649 29.816H153.585C153.339 30.1253 153.083 30.3813 152.817 30.584C152.561 30.7867 152.262 30.9307 151.921 31.016C151.59 31.112 151.179 31.16 150.689 31.16C150.177 31.16 149.713 31.064 149.297 30.872C148.891 30.6693 148.571 30.3653 148.337 29.96C148.102 29.544 147.985 29.0213 147.985 28.392C147.985 27.464 148.31 26.7813 148.961 26.344C149.611 25.896 150.587 25.6507 151.889 25.608L153.409 25.56V25.176C153.409 24.7173 153.286 24.3813 153.041 24.168C152.806 23.9547 152.475 23.848 152.049 23.848C151.622 23.848 151.206 23.912 150.801 24.04C150.395 24.1573 149.99 24.3067 149.585 24.488L148.801 22.872C149.27 22.6267 149.787 22.4347 150.353 22.296C150.929 22.1573 151.526 22.088 152.145 22.088ZM152.481 26.984C151.713 27.0053 151.179 27.144 150.881 27.4C150.582 27.656 150.433 27.992 150.433 28.408C150.433 28.7707 150.539 29.032 150.753 29.192C150.966 29.3413 151.243 29.416 151.585 29.416C152.097 29.416 152.529 29.2667 152.881 28.968C153.233 28.6587 153.409 28.2267 153.409 27.672V26.952L152.481 26.984ZM165.081 22.104C166.062 22.104 166.857 22.488 167.465 23.256C168.073 24.0133 168.377 25.1333 168.377 26.616C168.377 27.608 168.233 28.4453 167.945 29.128C167.657 29.8 167.262 30.3067 166.761 30.648C166.259 30.9893 165.678 31.16 165.017 31.16C164.601 31.16 164.238 31.1067 163.929 31C163.63 30.8933 163.374 30.7547 163.161 30.584C162.947 30.4133 162.761 30.232 162.601 30.04H162.473C162.515 30.2427 162.547 30.456 162.569 30.68C162.59 30.8933 162.601 31.1067 162.601 31.32V34.84H160.217V22.264H162.153L162.489 23.4H162.601C162.761 23.1653 162.953 22.952 163.177 22.76C163.401 22.5573 163.667 22.3973 163.977 22.28C164.297 22.1627 164.665 22.104 165.081 22.104ZM164.313 24.008C163.897 24.008 163.566 24.0933 163.321 24.264C163.075 24.4347 162.894 24.696 162.777 25.048C162.67 25.3893 162.611 25.8213 162.601 26.344V26.6C162.601 27.1653 162.654 27.6453 162.761 28.04C162.867 28.424 163.049 28.7173 163.305 28.92C163.561 29.1227 163.907 29.224 164.345 29.224C164.707 29.224 165.006 29.1227 165.241 28.92C165.475 28.7173 165.651 28.4187 165.769 28.024C165.886 27.6293 165.945 27.1493 165.945 26.584C165.945 25.7307 165.811 25.0907 165.545 24.664C165.289 24.2267 164.878 24.008 164.313 24.008ZM179.418 24.056H176.554V31H174.17V24.056H171.306V22.264H179.418V24.056ZM186.613 22.088C187.787 22.088 188.683 22.344 189.301 22.856C189.931 23.3573 190.245 24.1307 190.245 25.176V31H188.581L188.117 29.816H188.053C187.808 30.1253 187.552 30.3813 187.285 30.584C187.029 30.7867 186.731 30.9307 186.389 31.016C186.059 31.112 185.648 31.16 185.157 31.16C184.645 31.16 184.181 31.064 183.765 30.872C183.36 30.6693 183.04 30.3653 182.805 29.96C182.571 29.544 182.453 29.0213 182.453 28.392C182.453 27.464 182.779 26.7813 183.429 26.344C184.08 25.896 185.056 25.6507 186.357 25.608L187.877 25.56V25.176C187.877 24.7173 187.755 24.3813 187.509 24.168C187.275 23.9547 186.944 23.848 186.517 23.848C186.091 23.848 185.675 23.912 185.269 24.04C184.864 24.1573 184.459 24.3067 184.053 24.488L183.269 22.872C183.739 22.6267 184.256 22.4347 184.821 22.296C185.397 22.1573 185.995 22.088 186.613 22.088ZM186.949 26.984C186.181 27.0053 185.648 27.144 185.349 27.4C185.051 27.656 184.901 27.992 184.901 28.408C184.901 28.7707 185.008 29.032 185.221 29.192C185.435 29.3413 185.712 29.416 186.053 29.416C186.565 29.416 186.997 29.2667 187.349 28.968C187.701 28.6587 187.877 28.2267 187.877 27.672V26.952L186.949 26.984Z" fill="#E8E9E9"/>
<defs>
<linearGradient id="paint0_linear_1_64" x1="-66.4773" y1="-40.7547" x2="3.87138" y2="138.376" gradientUnits="userSpaceOnUse">
<stop stop-color="#22FFFF"/>
<stop offset="1" stop-color="#2A3737" stop-opacity="0"/>
</linearGradient>
</defs>
</svg>
