<svg width="318" height="48" viewBox="0 0 318 48" fill="none" xmlns="http://www.w3.org/2000/svg">
<rect width="318" height="48" rx="8" fill="url(#paint0_linear_1_64)" fill-opacity="0.36"/>
<path d="M128.363 31H125.947V26.072H121.419V31H119.003V19.576H121.419V24.056H125.947V19.576H128.363V31ZM136.629 22.088C137.802 22.088 138.698 22.344 139.317 22.856C139.946 23.3573 140.261 24.1307 140.261 25.176V31H138.597L138.133 29.816H138.069C137.824 30.1253 137.568 30.3813 137.301 30.584C137.045 30.7867 136.746 30.9307 136.405 31.016C136.074 31.112 135.664 31.16 135.173 31.16C134.661 31.16 134.197 31.064 133.781 30.872C133.376 30.6693 133.056 30.3653 132.821 29.96C132.586 29.544 132.469 29.0213 132.469 28.392C132.469 27.464 132.794 26.7813 133.445 26.344C134.096 25.896 135.072 25.6507 136.373 25.608L137.893 25.56V25.176C137.893 24.7173 137.77 24.3813 137.525 24.168C137.29 23.9547 136.96 23.848 136.533 23.848C136.106 23.848 135.69 23.912 135.285 24.04C134.88 24.1573 134.474 24.3067 134.069 24.488L133.285 22.872C133.754 22.6267 134.272 22.4347 134.837 22.296C135.413 22.1573 136.01 22.088 136.629 22.088ZM136.965 26.984C136.197 27.0053 135.664 27.144 135.365 27.4C135.066 27.656 134.917 27.992 134.917 28.408C134.917 28.7707 135.024 29.032 135.237 29.192C135.45 29.3413 135.728 29.416 136.069 29.416C136.581 29.416 137.013 29.2667 137.365 28.968C137.717 28.6587 137.893 28.2267 137.893 27.672V26.952L136.965 26.984ZM157.709 22.264V31H144.701V22.264H147.085V29.208H150.013V22.264H152.397V29.208H155.325V22.264H157.709ZM165.785 22.088C166.958 22.088 167.854 22.344 168.473 22.856C169.102 23.3573 169.417 24.1307 169.417 25.176V31H167.753L167.289 29.816H167.225C166.98 30.1253 166.724 30.3813 166.457 30.584C166.201 30.7867 165.902 30.9307 165.561 31.016C165.23 31.112 164.82 31.16 164.329 31.16C163.817 31.16 163.353 31.064 162.937 30.872C162.532 30.6693 162.212 30.3653 161.977 29.96C161.742 29.544 161.625 29.0213 161.625 28.392C161.625 27.464 161.95 26.7813 162.601 26.344C163.252 25.896 164.228 25.6507 165.529 25.608L167.049 25.56V25.176C167.049 24.7173 166.926 24.3813 166.681 24.168C166.446 23.9547 166.116 23.848 165.689 23.848C165.262 23.848 164.846 23.912 164.441 24.04C164.036 24.1573 163.63 24.3067 163.225 24.488L162.441 22.872C162.91 22.6267 163.428 22.4347 163.993 22.296C164.569 22.1573 165.166 22.088 165.785 22.088ZM166.121 26.984C165.353 27.0053 164.82 27.144 164.521 27.4C164.222 27.656 164.073 27.992 164.073 28.408C164.073 28.7707 164.18 29.032 164.393 29.192C164.606 29.3413 164.884 29.416 165.225 29.416C165.737 29.416 166.169 29.2667 166.521 28.968C166.873 28.6587 167.049 28.2267 167.049 27.672V26.952L166.121 26.984ZM184.382 22.264H187.006L183.55 26.456L187.31 31H184.606L181.038 26.568V31H178.654V22.264H181.038V26.504L184.382 22.264ZM194.145 22.088C195.318 22.088 196.214 22.344 196.833 22.856C197.462 23.3573 197.777 24.1307 197.777 25.176V31H196.113L195.649 29.816H195.585C195.339 30.1253 195.083 30.3813 194.817 30.584C194.561 30.7867 194.262 30.9307 193.921 31.016C193.59 31.112 193.179 31.16 192.689 31.16C192.177 31.16 191.713 31.064 191.297 30.872C190.891 30.6693 190.571 30.3653 190.337 29.96C190.102 29.544 189.985 29.0213 189.985 28.392C189.985 27.464 190.31 26.7813 190.961 26.344C191.611 25.896 192.587 25.6507 193.889 25.608L195.409 25.56V25.176C195.409 24.7173 195.286 24.3813 195.041 24.168C194.806 23.9547 194.475 23.848 194.049 23.848C193.622 23.848 193.206 23.912 192.801 24.04C192.395 24.1573 191.99 24.3067 191.585 24.488L190.801 22.872C191.27 22.6267 191.787 22.4347 192.353 22.296C192.929 22.1573 193.526 22.088 194.145 22.088ZM194.481 26.984C193.713 27.0053 193.179 27.144 192.881 27.4C192.582 27.656 192.433 27.992 192.433 28.408C192.433 28.7707 192.539 29.032 192.753 29.192C192.966 29.3413 193.243 29.416 193.585 29.416C194.097 29.416 194.529 29.2667 194.881 28.968C195.233 28.6587 195.409 28.2267 195.409 27.672V26.952L194.481 26.984ZM207.081 22.104C208.062 22.104 208.857 22.488 209.465 23.256C210.073 24.0133 210.377 25.1333 210.377 26.616C210.377 27.608 210.233 28.4453 209.945 29.128C209.657 29.8 209.262 30.3067 208.761 30.648C208.259 30.9893 207.678 31.16 207.017 31.16C206.601 31.16 206.238 31.1067 205.929 31C205.63 30.8933 205.374 30.7547 205.161 30.584C204.947 30.4133 204.761 30.232 204.601 30.04H204.473C204.515 30.2427 204.547 30.456 204.569 30.68C204.59 30.8933 204.601 31.1067 204.601 31.32V34.84H202.217V22.264H204.153L204.489 23.4H204.601C204.761 23.1653 204.953 22.952 205.177 22.76C205.401 22.5573 205.667 22.3973 205.977 22.28C206.297 22.1627 206.665 22.104 207.081 22.104ZM206.313 24.008C205.897 24.008 205.566 24.0933 205.321 24.264C205.075 24.4347 204.894 24.696 204.777 25.048C204.67 25.3893 204.611 25.8213 204.601 26.344V26.6C204.601 27.1653 204.654 27.6453 204.761 28.04C204.867 28.424 205.049 28.7173 205.305 28.92C205.561 29.1227 205.907 29.224 206.345 29.224C206.707 29.224 207.006 29.1227 207.241 28.92C207.475 28.7173 207.651 28.4187 207.769 28.024C207.886 27.6293 207.945 27.1493 207.945 26.584C207.945 25.7307 207.811 25.0907 207.545 24.664C207.289 24.2267 206.878 24.008 206.313 24.008ZM221.418 24.056H218.554V31H216.17V24.056H213.306V22.264H221.418V24.056ZM228.613 22.088C229.787 22.088 230.683 22.344 231.301 22.856C231.931 23.3573 232.245 24.1307 232.245 25.176V31H230.581L230.117 29.816H230.053C229.808 30.1253 229.552 30.3813 229.285 30.584C229.029 30.7867 228.731 30.9307 228.389 31.016C228.059 31.112 227.648 31.16 227.157 31.16C226.645 31.16 226.181 31.064 225.765 30.872C225.36 30.6693 225.04 30.3653 224.805 29.96C224.571 29.544 224.453 29.0213 224.453 28.392C224.453 27.464 224.779 26.7813 225.429 26.344C226.08 25.896 227.056 25.6507 228.357 25.608L229.877 25.56V25.176C229.877 24.7173 229.755 24.3813 229.509 24.168C229.275 23.9547 228.944 23.848 228.517 23.848C228.091 23.848 227.675 23.912 227.269 24.04C226.864 24.1573 226.459 24.3067 226.053 24.488L225.269 22.872C225.739 22.6267 226.256 22.4347 226.821 22.296C227.397 22.1573 227.995 22.088 228.613 22.088ZM228.949 26.984C228.181 27.0053 227.648 27.144 227.349 27.4C227.051 27.656 226.901 27.992 226.901 28.408C226.901 28.7707 227.008 29.032 227.221 29.192C227.435 29.3413 227.712 29.416 228.053 29.416C228.565 29.416 228.997 29.2667 229.349 28.968C229.701 28.6587 229.877 28.2267 229.877 27.672V26.952L228.949 26.984Z" fill="#E8E9E9"/>
<defs>
<linearGradient id="paint0_linear_1_64" x1="-90.3409" y1="-40.7547" x2="-35.1963" y2="150.068" gradientUnits="userSpaceOnUse">
<stop stop-color="#22FFFF"/>
<stop offset="1" stop-color="#2A3737" stop-opacity="0"/>
</linearGradient>
</defs>
</svg>
